<svg width="34" height="35" viewBox="0 0 34 35" fill="none" xmlns="http://www.w3.org/2000/svg">
<g clip-path="url(#clip0_6_93)">
<path d="M34 17.8878C34 16.453 33.8842 15.406 33.6338 14.3203H17.3469V20.7961H26.9069C26.7143 22.4054 25.6735 24.829 23.3605 26.4576L23.3281 26.6744L28.4777 30.6874L28.8344 30.7233C32.111 27.6792 34 23.2003 34 17.8878Z" fill="#4285F4"/>
<path d="M17.347 34.95C22.0306 34.95 25.9625 33.3988 28.8345 30.7232L23.3605 26.4576C21.8957 27.4852 19.9297 28.2026 17.347 28.2026C12.7597 28.2026 8.86632 25.1586 7.47843 20.9512L7.275 20.9686L1.92037 25.1372L1.85034 25.333C4.70292 31.0333 10.5623 34.95 17.347 34.95Z" fill="#34A853"/>
<path d="M7.47838 20.9512C7.11218 19.8654 6.90024 18.702 6.90024 17.5C6.90024 16.2978 7.11218 15.1345 7.45912 14.0487L7.44942 13.8175L2.02769 9.58191L1.8503 9.66679C0.674611 12.0323 0 14.6886 0 17.5C0 20.3114 0.674611 22.9675 1.8503 25.333L7.47838 20.9512Z" fill="#FBBC05"/>
<path d="M17.347 6.79728C20.6043 6.79728 22.8015 8.21266 24.0544 9.39546L28.9501 4.58699C25.9434 1.77561 22.0306 0.0499878 17.347 0.0499878C10.5623 0.0499878 4.70292 3.96651 1.85034 9.6668L7.45916 14.0488C8.86632 9.84137 12.7597 6.79728 17.347 6.79728Z" fill="#EB4335"/>
</g>
<defs>
<clipPath id="clip0_6_93">
<rect width="34" height="35" fill="white"/>
</clipPath>
</defs>
</svg>
